<?xml version="1.0" encoding="utf-8"?>
<!-- Generator: Adobe Illustrator 15.0.0, SVG Export Plug-In . SVG Version: 6.00 Build 0)  -->
<!DOCTYPE svg PUBLIC "-//W3C//DTD SVG 1.1//EN" "http://www.w3.org/Graphics/SVG/1.1/DTD/svg11.dtd">
<svg version="1.1" id="Layer_1" xmlns="http://www.w3.org/2000/svg" xmlns:xlink="http://www.w3.org/1999/xlink" x="0px" y="0px"
	 width="790.289px" height="170px" viewBox="0 0 790.289 170" enable-background="new 0 0 790.289 170" xml:space="preserve">
<g>
	<g>
		<path fill="#3FD5AD" d="M202.452,34.593c-28.018,0-50.812,22.794-50.812,50.811c0,7.011,1.427,13.693,4.007,19.775l81.329-57.06
			C227.563,39.375,215.415,34.593,202.452,34.593z"/>
		<path fill="#3FD5AD" d="M202.381,85l49.888-35.146c-11.046-15.651-29.273-25.873-49.888-25.873
			c-33.699,0-61.019,27.319-61.019,61.019c0,33.701,27.319,61.019,61.019,61.019c33.7,0,61.02-27.318,61.02-61.019H202.381z
			 M202.452,141.366c-30.858,0-55.964-25.104-55.964-55.962c0-30.858,25.105-55.963,55.964-55.963
			c15.391,0,29.736,6.12,40.393,17.23l2.079,2.167l-86.994,61.033c8.657,15.691,25.37,26.343,44.522,26.343
			c26.509,0,48.769-20.688,50.677-47.097l5.139,0.371C256.166,118.58,231.649,141.366,202.452,141.366z"/>
	</g>
	<g>
		<path fill="none" stroke="#EC1C24" stroke-width="3" stroke-miterlimit="10" d="M278.516,32.017"/>
	</g>
	<path fill="#222222" d="M629.546,86.862"/>
	<path fill="#222222" d="M67.047,33.225H34.668v102.418h4.83V90.491h27.174c19.741,0,32.005-11.115,32.005-29.008
		C98.677,43.524,87.148,33.225,67.047,33.225z M66.672,85.661H39.498V38.055h27.549c17.282,0,26.8,8.32,26.8,23.428
		C93.847,76.848,83.942,85.661,66.672,85.661z"/>
	<rect x="115.737" y="33.101" fill="#222222" width="4.83" height="102.542"/>
	<path fill="#222222" d="M456.016,31.368c-29.563,0-47.213,20.289-47.213,54.273c0,18.129,9.646,52.416,46.155,52.416
		c37.676,0,46.157-38.993,46.157-52.653C501.115,71.386,492.829,31.368,456.016,31.368z M454.958,133.228
		c-32.688,0-41.325-31.126-41.325-47.586c0-14.866,4.131-49.443,42.383-49.443c33.033,0,40.27,35.52,40.27,49.206
		C496.285,97.812,488.69,133.228,454.958,133.228z"/>
	<path fill="#222222" d="M583.025,110.093c-0.292-5.945-0.969-19.59-13.623-25.257c11.463-4.047,18.35-13.247,18.35-25.695
		c0-11.898-5.918-26.082-34.113-26.082h-31.152v102.583h4.83V86.415c4.299,0.26,13.806,0.712,27.803,0.712
		c0.227,0,0.44-0.021,0.667-0.023v0.023c21.268,0,22.044,15.673,22.415,23.205c0.025,0.508,0.048,0.97,0.076,1.374
		c0.286,4.285,1.66,18.787,7.327,25.494l3.688-3.116c-3.752-4.442-5.683-15.003-6.195-22.699
		C583.069,111.005,583.051,110.571,583.025,110.093z M555.119,82.297c-14.242,0-23.755-0.472-27.803-0.722V37.89h26.322
		c19.431,0,29.283,7.15,29.283,21.251C582.922,73.424,572.268,82.297,555.119,82.297z"/>
	<polygon fill="#222222" points="673.682,30.275 614.8,86.858 614.8,32.017 609.97,32.017 609.97,135.643 614.8,135.643 
		614.8,93.557 622.332,86.318 671.229,137.314 674.717,133.971 625.815,82.97 677.027,33.758 	"/>
	<path fill="#222222" d="M726.142,81.434c-0.946-0.291-1.833-0.566-2.647-0.831l-2.116-0.677
		c-9.576-3.038-25.599-8.124-25.599-19.872c0-11.676,7.051-24.151,26.834-24.151c18.919,0,27.104,15.993,27.104,24.151h4.83
		c0-12.15-11.098-28.982-31.935-28.982c-19.236,0-31.664,11.376-31.664,28.982c0,15.282,18.133,21.038,28.966,24.475L722,85.198
		c0.834,0.271,1.746,0.552,2.718,0.852c10.38,3.205,26.072,8.051,26.072,23.686c0,17.32-14.208,23.491-27.507,23.491
		c-12.931,0-32.066-7.613-32.066-23.955h-4.83c0,19.637,22.02,28.785,36.896,28.785c14.919,0,32.338-7.417,32.338-28.321
		C755.621,90.536,736.444,84.615,726.142,81.434z"/>
	<polygon fill="#222222" points="365.29,135.668 338.098,38.959 309.322,135.668 303.194,135.668 276.73,32.635 281.504,32.635 
		306.469,132.226 335.215,34.347 341.606,34.505 368.364,131.113 394.757,32.681 399.989,32.681 371.547,135.668 	"/>
</g>
</svg>
