<?xml version="1.0" encoding="UTF-8"?>
<svg id="Layer_2" data-name="Layer 2" xmlns="http://www.w3.org/2000/svg" viewBox="0 0 291.62 49.36">
  <defs>
    <style>
      .cls-1 {
        fill: #3fd6ad;
      }

      .cls-1, .cls-2 {
        stroke-width: 0px;
      }

      .cls-2 {
        fill: #fff;
      }
    </style>
  </defs>
  <g id="Layer_1-2" data-name="Layer 1">
    <g>
      <g>
        <path class="cls-1" d="M67.87,4.29c-11.33,0-20.55,9.22-20.55,20.55,0,2.84.58,5.54,1.62,8l32.9-23.08c-3.81-3.54-8.72-5.47-13.96-5.47Z"/>
        <path class="cls-1" d="M67.84,24.68l20.18-14.22c-4.47-6.33-11.84-10.47-20.18-10.47-13.63,0-24.68,11.05-24.68,24.68s11.05,24.68,24.68,24.68,24.68-11.05,24.68-24.68h-24.68ZM67.87,47.48c-12.48,0-22.64-10.15-22.64-22.64S55.38,2.21,67.87,2.21c6.23,0,12.03,2.48,16.34,6.97l.84.88-35.19,24.69c3.5,6.35,10.26,10.66,18.01,10.66,10.72,0,19.73-8.37,20.5-19.05l2.08.15c-.85,11.77-10.77,20.98-22.58,20.98Z"/>
      </g>
      <path class="cls-2" d="M13.1,3.74H0v41.43h1.95v-18.26h10.99c7.99,0,12.95-4.5,12.95-11.73S21.23,3.74,13.1,3.74ZM12.95,24.95H1.95V5.69h11.14c6.99,0,10.84,3.37,10.84,9.48s-4.01,9.78-10.99,9.78Z"/>
      <rect class="cls-2" x="32.79" y="3.69" width="1.95" height="41.48"/>
      <path class="cls-2" d="M170.43,2.99c-11.96,0-19.1,8.21-19.1,21.95,0,7.33,3.9,21.2,18.67,21.2s18.67-15.77,18.67-21.3-3.35-21.86-18.24-21.86ZM170,44.19c-13.22,0-16.72-12.59-16.72-19.25,0-6.01,1.67-20,17.14-20,13.36,0,16.29,14.37,16.29,19.9,0,5.02-3.07,19.34-16.72,19.34Z"/>
      <path class="cls-2" d="M221.8,34.83c-.12-2.4-.39-7.92-5.51-10.22,4.64-1.64,7.42-5.36,7.42-10.39s-2.39-10.55-13.8-10.55h-12.6v41.49h1.95v-19.91c1.74.11,5.58.29,11.25.29.09,0,.18,0,.27,0h0c8.6,0,8.92,6.35,9.07,9.4.01.21.02.39.03.56.12,1.73.67,7.6,2.96,10.31l1.49-1.26c-1.52-1.8-2.3-6.07-2.51-9.18-.01-.15-.02-.33-.03-.52ZM210.52,23.59c-5.76,0-9.61-.19-11.25-.29V5.63h10.65c7.86,0,11.84,2.89,11.84,8.6,0,5.78-4.31,9.37-11.25,9.37Z"/>
      <polygon class="cls-2" points="258.47 2.55 234.66 25.43 234.66 3.25 232.7 3.25 232.7 45.17 234.66 45.17 234.66 28.14 237.7 25.21 257.48 45.84 258.89 44.49 239.11 23.86 259.83 3.95 258.47 2.55"/>
      <path class="cls-2" d="M279.69,23.24c-.38-.12-.74-.23-1.07-.34l-.86-.27c-3.87-1.23-10.35-3.29-10.35-8.04s2.85-9.77,10.85-9.77,10.96,6.47,10.96,9.77h1.95c0-4.91-4.49-11.72-12.92-11.72-7.78,0-12.81,4.6-12.81,11.72,0,6.18,7.33,8.51,11.72,9.9l.84.27c.34.11.71.22,1.1.34,4.2,1.3,10.55,3.26,10.55,9.58,0,7.01-5.75,9.5-11.13,9.5s-12.97-3.08-12.97-9.69h-1.95c0,7.94,8.91,11.64,14.92,11.64s13.08-3,13.08-11.46c0-7.77-7.76-10.16-11.92-11.45Z"/>
      <polygon class="cls-2" points="133.73 45.18 122.73 6.06 111.09 45.18 108.62 45.18 97.91 3.5 99.84 3.5 109.94 43.78 121.57 4.19 124.15 4.26 134.98 43.33 145.65 3.52 147.77 3.52 136.26 45.18 133.73 45.18"/>
    </g>
  </g>
</svg>