<svg version="1.1" id="Layer_1" xmlns="http://www.w3.org/2000/svg" xmlns:xlink="http://www.w3.org/1999/xlink" x="0px" y="0px"
	 width="790.289px" height="170px" viewBox="0 0 790.289 170" enable-background="new 0 0 790.289 170" xml:space="preserve">
<g>
	<g>
		<path fill="#3ED5AC" d="M202.452,34.593c-28.018,0-50.812,22.794-50.812,50.811c0,7.011,1.427,13.693,4.007,19.775l81.329-57.06
			C227.563,39.375,215.415,34.593,202.452,34.593z"/>
		<path fill="#3ED5AC" d="M202.381,85l49.888-35.146c-11.046-15.651-29.273-25.873-49.888-25.873
			c-33.699,0-61.019,27.319-61.019,61.019c0,33.701,27.319,61.019,61.019,61.019c33.7,0,61.02-27.318,61.02-61.019H202.381z
			 M202.452,141.366c-30.858,0-55.964-25.104-55.964-55.962c0-30.858,25.105-55.963,55.964-55.963
			c15.391,0,29.736,6.12,40.393,17.23l2.079,2.167l-86.994,61.033c8.657,15.691,25.37,26.343,44.522,26.343
			c26.509,0,48.769-20.688,50.677-47.097l5.139,0.371C256.166,118.58,231.649,141.366,202.452,141.366z"/>
	</g>
</g>
</svg>
