<?xml version="1.0" encoding="UTF-8"?>
<svg id="Layer_2" data-name="Layer 2" xmlns="http://www.w3.org/2000/svg" viewBox="0 0 291.62 49.36">
  <defs>
    <style>
      .cls-1 {
        fill: #3fd6ad;
      }

      .cls-1, .cls-2 {
        stroke-width: 0px;
      }

      .cls-2 {
        fill: #fff;
      }
    </style>
  </defs>
  <g id="Layer_1-2" data-name="Layer 1">
    <g>
      <path class="cls-1" d="M67.87,4.29c-11.33,0-20.55,9.22-20.55,20.55,0,2.84.58,5.54,1.62,8l32.9-23.08c-3.81-3.54-8.72-5.47-13.96-5.47Z"/>
      <path class="cls-1" d="M67.84,24.68l20.18-14.22c-4.47-6.33-11.84-10.47-20.18-10.47-13.63,0-24.68,11.05-24.68,24.68s11.05,24.68,24.68,24.68,24.68-11.05,24.68-24.68h-24.68ZM67.87,47.48c-12.48,0-22.64-10.15-22.64-22.64S55.38,2.21,67.87,2.21c6.23,0,12.03,2.48,16.34,6.97l.84.88-35.19,24.69c3.5,6.35,10.26,10.66,18.01,10.66,10.72,0,19.73-8.37,20.5-19.05l2.08.15c-.85,11.77-10.77,20.98-22.58,20.98Z"/>
    </g>
  </g>
</svg>
